<svg
enable-background="new 0 0 100 100"
fill="#000000"
height='200'
version="1.1"
viewBox="0 0 100 100"
width='200' x="0px"
xmlns="http://www.w3.org/2000/svg"
y="0px"
xml:space="preserve">
<g>
<g>
<path d="M62.172,54.58l-0.014-36.606c0-6.304-5.129-11.434-11.434-11.434c-6.301,0-11.433,5.13-11.433,11.434l-0.006,36.598    c-5.886,3.856-9.521,10.433-9.521,17.515c0,11.553,9.404,20.958,20.959,20.958c11.56,0,20.957-9.405,20.957-20.958    C71.682,65.005,68.047,58.436,62.172,54.58z M50.725,88.822c-9.227,0-16.733-7.508-16.733-16.735    c0-5.998,3.241-11.57,8.452-14.553l1.064-0.608v-1.225l0.006-37.728c0-3.977,3.235-7.211,7.211-7.211    c3.977,0,7.217,3.234,7.217,7.211v0.906h-4.82c-0.894,0-1.623,0.724-1.623,1.625c0,0.894,0.729,1.622,1.623,1.622h4.82v4.269    h-4.82c-0.894,0-1.623,0.722-1.623,1.623c0,0.895,0.729,1.624,1.623,1.624h4.82v4.267h-4.82c-0.894,0-1.623,0.73-1.623,1.625    c0,0.898,0.729,1.622,1.623,1.622h4.82l0.004,18.547v1.231l1.068,0.601c5.21,2.982,8.452,8.555,8.452,14.553    C67.466,81.314,59.957,88.822,50.725,88.822z"></path><path d="M56.838,61.346c-2.024-1.16-3.272-3.311-3.272-5.637l-0.013-11.952c0-1.561-1.269-2.829-2.828-2.829    c-1.561,0-2.826,1.268-2.826,2.829l-0.007,11.945c0,2.333-1.25,4.484-3.273,5.644c-3.855,2.193-6.246,6.31-6.246,10.741    c0,6.811,5.541,12.352,12.353,12.352c6.817,0,12.36-5.541,12.36-12.352C63.085,67.664,60.686,63.54,56.838,61.346z"></path>
</g>
</g>
</svg>